Coordinates
version=1
nRows=34
nColumns=33
inDegrees=yes

Units are S.I. units (second, meters, Newtons, ...)
Angles are in degrees.

endheader
time	ground_thorax_rot_x	ground_thorax_rot_y	ground_thorax_rot_z	ground_thorax_tx	ground_thorax_ty	ground_thorax_tz	clav_prot_r	clav_elev_r	scapula_abduction_r	scapula_elevation_r	scapula_upward_rot_r	scapula_winging_r	shoulder_elv_r	plane_of_elev_r	axial_rot_r	elbow_flexion_r	pro_sup_r	wrist_flex_r	wrist_dev_r	clav_prot_l	clav_elev_l	scapula_abduction_l	scapula_elevation_l	scapula_upward_rot_l	scapula_winging_l	shoulder_elv_l	plane_of_elev_l	axial_rot_l	elbow_flexion_l	pro_sup_l	wrist_flex_l	wrist_dev_l	
13.0500	40.953765	12.883011	13.699242	-204.980488	834.745887	3.174399	13.195136	40.475116	39.687045	45.000000	-28.998801	-2970.634244	-4253.354970	32.841056	49.263145	731.410085	-356.582399	18.567594	9.821220	7.243563	-45.000000	-37.051759	45.000000	-41.472169	457.171552	-6764.244246	21.084008	-53.308937	-709.375347	-364.083344	8.576839	-19.965289	
13.0600	40.972336	12.826907	13.658548	-206.461459	835.642207	3.035056	13.161714	40.398573	39.636092	45.000000	-29.178267	-2970.664536	-4253.262254	32.850447	49.276306	731.379108	-357.299820	18.545304	9.823485	7.293214	-45.000000	-37.031202	45.000000	-41.631988	457.323690	-6764.145687	21.035095	-53.644262	-709.360982	-364.228648	8.482140	-19.976715	
13.0700	40.987909	12.767729	13.614622	-207.898238	836.509571	2.899905	13.126848	40.330632	39.587260	45.000000	-29.343624	-2970.695064	-4253.173124	32.858529	49.278651	731.352567	-357.945522	18.531160	9.815779	7.338510	-45.000000	-37.013303	45.000000	-41.772091	457.474194	-6764.051632	20.987225	-53.964333	-709.348998	-364.281626	8.372849	-19.994096	
13.0800	41.001692	12.702496	13.563309	-209.297674	837.348975	2.770844	13.089780	40.270358	39.540162	45.000000	-29.496721	-2970.725018	-4253.087076	32.866838	49.271656	731.331463	-358.509282	18.526457	9.796236	7.378748	-45.000000	-36.999909	45.000000	-41.890251	457.622341	-6763.963755	20.940067	-54.271845	-709.335447	-364.230929	8.248748	-20.018632	
13.0900	41.013304	12.627310	13.503404	-210.666484	838.160100	2.649742	13.049020	40.216776	39.496417	45.000000	-29.635936	-2970.754172	-4253.006608	32.876159	49.255001	731.314547	-358.984278	18.531923	9.761767	7.412231	-45.000000	-36.991746	45.000000	-41.979887	457.769040	-6763.883499	20.889749	-54.566689	-709.323286	-364.071005	8.109849	-20.049523	
13.1000	41.023097	12.544065	13.436807	-212.010620	838.941767	2.538313	13.006529	40.164328	39.452276	45.000000	-29.770045	-2970.781865	-4252.930376	32.891480	49.232900	731.299238	-359.370562	18.546564	9.711162	7.442532	-45.000000	-36.984630	45.000000	-42.056395	457.911777	-6763.810933	20.841918	-54.847815	-709.311526	-363.805195	7.956812	-20.085419	
13.1100	41.034013	12.433897	13.341979	-213.334523	839.692321	2.438019	12.954365	40.113264	39.417349	45.000000	-29.879481	-2970.811582	-4252.870451	32.910867	49.196411	731.275195	-359.671821	18.571047	9.633388	7.462107	-45.000000	-36.988351	45.000000	-42.070096	458.048348	-6763.753130	20.786343	-55.123900	-709.310872	-363.446481	7.796134	-20.122451	
13.1200	41.042602	12.314269	13.233713	-214.641098	840.410220	2.350055	12.899134	40.063150	39.377235	45.000000	-29.975012	-2970.840814	-4252.819817	32.934525	49.158320	731.246751	-359.892413	18.602631	9.539487	7.474358	-45.000000	-36.990658	45.000000	-42.041828	458.180610	-6763.702708	20.729888	-55.411321	-709.316252	-363.013156	7.627674	-20.159098	
13.1300	41.048581	12.181535	13.113780	-215.931713	841.094387	2.275364	12.840269	40.011067	39.338028	45.000000	-30.062941	-2970.868851	-4252.780203	32.963152	49.117066	731.213396	-360.043277	18.641097	9.425693	7.481531	-45.000000	-36.997782	45.000000	-41.968331	458.312632	-6763.661269	20.665653	-55.716310	-709.329738	-362.523872	7.452015	-20.192721	
13.1400	41.048288	12.067808	13.010917	-217.206645	841.744466	2.214724	12.789164	39.958588	39.282654	45.000000	-30.169758	-2970.890499	-4252.734259	32.994067	49.086193	731.186480	-360.132026	18.682570	9.313353	7.491781	-45.000000	-36.992703	45.000000	-41.922798	458.443176	-6763.616970	20.610123	-56.026286	-709.335842	-361.992193	7.268068	-20.224304	
13.1500	41.043114	11.959917	12.918610	-218.465184	842.360708	2.168793	12.740993	39.902730	39.229473	45.000000	-30.296538	-2970.908363	-4252.688592	33.024488	49.054532	731.165412	-360.170409	18.728053	9.193383	7.504264	-45.000000	-36.990786	45.000000	-41.893810	458.574561	-6763.575543	20.552571	-56.320126	-709.338142	-361.425937	7.077672	-20.252417	
13.1600	41.029106	11.896800	12.871227	-219.706241	842.943923	2.138142	12.708243	39.845290	39.158150	45.000000	-30.471075	-2970.917650	-4252.623612	33.051733	49.034964	731.161414	-360.163468	18.772863	9.090319	7.529785	-45.000000	-36.964835	45.000000	-41.981133	458.704437	-6763.522378	20.519629	-56.572606	-709.322482	-360.823180	6.875446	-20.279241	
13.1700	41.007168	11.860937	12.862761	-220.928531	843.495244	2.123203	12.685980	39.777827	39.089968	45.000000	-30.696023	-2970.922904	-4252.548809	33.077090	49.015715	731.171717	-360.122367	18.818025	8.989599	7.570198	-45.000000	-36.929305	45.000000	-42.178088	458.834926	-6763.465218	20.503813	-56.748679	-709.296770	-360.176276	6.661205	-20.303546	
13.1800	40.974144	11.885067	12.923022	-222.130557	844.015780	2.124225	12.684801	39.698042	39.012836	45.000000	-30.996950	-2970.923718	-4252.449806	33.097646	49.001095	731.199488	-360.047400	18.859473	8.906936	7.638484	-45.000000	-36.858675	45.000000	-42.591955	458.958410	-6763.393688	20.538722	-56.804246	-709.252881	-359.459926	6.427282	-20.327099	
13.1900	40.934392	11.923893	13.010749	-223.310818	844.506474	2.141222	12.690007	39.612067	38.943970	45.000000	-31.324935	-2970.923711	-4252.348235	33.111497	48.971230	731.234326	-359.944836	18.899368	8.825781	7.719079	-45.000000	-36.777028	45.000000	-43.095610	459.076423	-6763.321637	20.596134	-56.757351	-709.207598	-358.659549	6.188436	-20.348643	
13.2000	40.890418	11.983531	13.120206	-224.467701	844.967950	2.173977	12.703854	39.528869	38.863643	45.000000	-31.667223	-2970.920110	-4252.238435	33.124648	48.936204	731.271110	-359.814018	18.934732	8.754743	7.808657	-45.000000	-36.672023	45.000000	-43.676601	459.184730	-6763.245302	20.683400	-56.645903	-709.157593	-357.767350	5.944294	-20.368151	
13.2100	40.845989	12.023507	13.210219	-225.599377	845.400496	2.222063	12.711952	39.457242	38.784801	45.000000	-31.973826	-2970.916310	-4252.142666	33.132674	48.889211	731.304019	-359.664772	18.968573	8.677301	7.886418	-45.000000	-36.575447	45.000000	-44.177861	459.288062	-6763.177897	20.758564	-56.527605	-709.112687	-356.806050	5.712533	-20.383788	
13.2200	40.802481	12.049334	13.279597	-226.703390	845.804013	2.284891	12.714490	39.396256	38.703938	45.000000	-32.250979	-2970.913823	-4252.058961	33.139728	48.839610	731.332637	-359.501608	19.001255	8.590943	7.952269	-45.000000	-36.484939	45.000000	-44.605895	459.384781	-6763.119558	20.825202	-56.419954	-709.065868	-355.802057	5.488173	-20.394362	
13.2300	40.763081	12.032624	13.297803	-227.776918	846.178302	2.361737	12.701336	39.349169	38.627624	45.000000	-32.468242	-2970.912771	-4251.999337	33.147728	48.788659	731.353619	-359.333917	19.034531	8.487293	7.991061	-45.000000	-36.419148	45.000000	-44.852508	459.478707	-6763.079584	20.855775	-56.356557	-709.025556	-354.801368	5.283569	-20.397379	
13.2400	40.728224	11.987095	13.276808	-228.816487	846.523118	2.451739	12.677345	39.305562	38.554409	45.000000	-32.652922	-2970.915014	-4251.957316	33.166128	48.749623	731.366229	-359.164431	19.067995	8.364991	8.010934	-45.000000	-36.370474	45.000000	-44.975257	459.568456	-6763.056387	20.864661	-56.327963	-708.987176	-353.836997	5.086076	-20.391179	
13.2500	40.694626	11.921172	13.228399	-229.818363	846.838397	2.553859	12.644724	39.262280	38.488498	45.000000	-32.809555	-2970.920438	-4251.932734	33.186592	48.723876	731.373086	-358.995932	19.101250	8.229517	8.013004	-45.000000	-36.341138	45.000000	-44.988753	459.655052	-6763.048017	20.850237	-56.324306	-708.954017	-352.936640	4.899836	-20.375652	
13.2600	40.657923	11.860253	13.187299	-230.778441	847.124149	2.666826	12.614450	39.209933	38.428845	45.000000	-32.976844	-2970.927415	-4251.913105	33.210594	48.716167	731.380519	-358.825072	19.133526	8.089435	8.014480	-45.000000	-36.317363	45.000000	-45.000000	459.739024	-6763.046528	20.834023	-56.310165	-708.919545	-352.100072	4.713986	-20.352428	
13.2700	40.619482	11.802458	13.149686	-231.692908	847.380559	2.789094	12.586179	39.155978	38.369889	45.000000	-33.138697	-2970.931099	-4251.897270	33.234074	48.719815	731.385349	-358.651042	19.163392	7.954161	8.012532	-45.000000	-36.296152	45.000000	-45.000000	459.816288	-6763.050371	20.816131	-56.290553	-708.889423	-351.328293	4.539780	-20.322885	
13.2800	40.581106	11.748606	13.115549	-232.558097	847.607710	2.918817	12.561537	39.102046	38.310196	45.000000	-33.292807	-2970.931810	-4251.885554	33.257676	48.733089	731.386099	-358.473468	19.190283	7.824113	8.008333	-45.000000	-36.278781	45.000000	-45.000000	459.884897	-6763.058620	20.797112	-56.274079	-708.861616	-350.619622	4.379723	-20.288634	
13.2900	40.542342	11.699481	13.086710	-233.370527	847.805457	3.053829	12.539882	39.053225	38.249581	45.000000	-33.433261	-2970.927039	-4251.876005	33.277667	48.755339	731.383988	-358.293716	19.213965	7.704066	8.001583	-45.000000	-36.262280	45.000000	-45.000000	459.944373	-6763.069260	20.777572	-56.262544	-708.837642	-349.978721	4.238545	-20.250666	
13.3000	40.502014	11.654639	13.066611	-234.127075	847.973350	3.191695	12.521115	39.010079	38.190338	45.000000	-33.560823	-2970.918289	-4251.868971	33.293564	48.784172	731.386215	-358.114834	19.235689	7.593419	7.995075	-45.000000	-36.243984	45.000000	-45.000000	459.999598	-6763.079976	20.757836	-56.253563	-708.811774	-349.407424	4.115618	-20.211068	
13.3100	40.460139	11.615008	13.056014	-234.825188	848.110683	3.329802	12.505870	38.971044	38.131538	45.000000	-33.681225	-2970.904308	-4251.861167	33.310517	48.820773	731.391009	-357.939039	19.254559	7.494046	7.991164	-45.000000	-36.219115	45.000000	-45.000000	460.050839	-6763.091207	20.742545	-56.240347	-708.788835	-348.903936	4.006379	-20.169228	
13.3200	40.415395	11.584671	13.059871	-235.462897	848.216525	3.465472	12.494475	38.935052	38.075636	45.000000	-33.790910	-2970.890518	-4251.857333	33.323412	48.855986	731.401775	-357.771218	19.271001	7.403029	7.991155	-45.000000	-36.188329	45.000000	-45.000000	460.101843	-6763.100262	20.730954	-56.226714	-708.765340	-348.461387	3.910036	-20.127085	
13.3300	40.368892	11.565043	13.077427	-236.038926	848.289856	3.596123	12.488120	38.901582	38.023041	45.000000	-33.896851	-2970.873404	-4251.853401	33.333880	48.892001	731.415102	-357.613547	19.284038	7.325956	7.995296	-45.000000	-36.153858	45.000000	-45.000000	460.150155	-6763.109800	20.722006	-56.210835	-708.746136	-348.070738	3.823322	-20.084282	
13.3400	40.321030	11.554592	13.106298	-236.552740	848.329672	3.719460	12.485283	38.869291	37.975604	45.000000	-33.992831	-2970.857478	-4251.856473	33.339659	48.918285	731.429638	-357.472489	19.293938	7.255092	8.003787	-45.000000	-36.117059	45.000000	-45.000000	460.195620	-6763.119014	20.716333	-56.195870	-708.727784	-347.723027	3.747800	-20.042706	
13.3500	40.273528	11.553851	13.145310	-237.004529	848.335122	3.833663	12.486278	38.838505	37.933292	45.000000	-34.084473	-2970.839494	-4251.860515	33.341768	48.939457	731.443387	-357.351274	19.300565	7.198605	8.012923	-45.000000	-36.084232	45.000000	-45.000000	460.233694	-6763.131466	20.709088	-56.179543	-708.717242	-347.411380	3.680200	-20.001118	
13.3600	40.229090	11.551281	13.180678	-237.395395	848.305914	3.937534	12.489013	38.805226	37.894566	45.000000	-34.158553	-2970.825070	-4251.876856	33.348873	48.943450	731.446816	-357.259192	19.302312	7.139920	8.025061	-45.000000	-36.052558	45.000000	-45.000000	460.263664	-6763.145011	20.708143	-56.169770	-708.706802	-347.132226	3.626400	-19.962541	
13.3700	40.188647	11.547984	13.216106	-237.727006	848.242219	4.030513	12.494346	38.771253	37.860461	45.000000	-34.225169	-2970.810444	-4251.892276	33.361511	48.940200	731.448136	-357.199785	19.301368	7.091704	8.037764	-45.000000	-36.025571	45.000000	-45.000000	460.282219	-6763.164400	20.707453	-56.159757	-708.706832	-346.882047	3.581903	-19.924336	
13.3800	40.152055	11.541746	13.251827	-238.004400	848.146496	4.113122	12.500237	38.735965	37.831263	45.000000	-34.276965	-2970.802749	-4251.907909	33.379821	48.921896	731.456030	-357.178591	19.300640	7.044885	8.052703	-45.000000	-35.997522	45.000000	-45.000000	460.290635	-6763.188741	20.710663	-56.151921	-708.718348	-346.656307	3.548297	-19.886333	
